# xmcd CD database file
#
# Track frame offsets:
#	150
#	39959
#	75672
#	90534
#	116829
#	150947
#	183142
#	185622
#	219088
#	252989
#	256661
#	287483
#	290096
#	319274
#
# Disc length: 4611 seconds
#
# Revision: 0
# Processed by: cddbd v1.5.2PL0 Copyright (c) Steve Scherf et al.
# Submitted via: CDex 1.60beta1-cs1
#
DISCID=b512010e
DTITLE=Stanley Jordan - State Of Nature
DYEAR=2008
DGENRE=Jazz
TTITLE0=A Place In Space
TTITLE1=All Blues
TTITLE2=Forest Garden
TTITLE3=Insensatez (How Insensitive)
TTITLE4=Mozart's Piano Concerto #21 (Andante in F Major)
TTITLE5=Song For My Father
TTITLE6=Mind Games #1
TTITLE7=Ocean Breeze
TTITLE8=Healing Waves
TTITLE9=Mind Games #2
TTITLE10=Sadow Dance
TTITLE11=Mind Games #3
TTITLE12=Prayer For The Sea
TTITLE13=Steppin' Out
EXTD=YEAR: 2008
EXTT0=
EXTT1=
EXTT2=
EXTT3=
EXTT4=
EXTT5=
EXTT6=
EXTT7=
EXTT8=
EXTT9=
EXTT10=
EXTT11=
EXTT12=
EXTT13=
PLAYORDER=
